<svg xmlns="http://www.w3.org/2000/svg" xmlns:xlink="http://www.w3.org/1999/xlink" version="1.1" width="256" height="256" viewBox="0 0 256 256" xml:space="preserve">

<defs>
</defs>
<g style="stroke: none; stroke-width: 0; stroke-dasharray: none; stroke-linecap: butt; stroke-linejoin: miter; stroke-miterlimit: 10; fill: none; fill-rule: nonzero; opacity: 1;" transform="translate(1.4065934065934016 1.4065934065934016) scale(2.81 2.81)" >
	<path d="M 14.561 41.307 c -0.552 0 -1 -0.448 -1 -1 v -5.007 c 0 -8.731 3.495 -16.845 9.842 -22.847 c 0.401 -0.379 1.034 -0.362 1.414 0.04 c 0.379 0.401 0.362 1.034 -0.04 1.414 c -5.943 5.62 -9.216 13.218 -9.216 21.394 v 5.007 C 15.561 40.859 15.113 41.307 14.561 41.307 z" style="stroke: none; stroke-width: 1; stroke-dasharray: none; stroke-linecap: butt; stroke-linejoin: miter; stroke-miterlimit: 10; fill: rgb(255,255,255); fill-rule: nonzero; opacity: 1;" transform=" matrix(1 0 0 1 0 0) " stroke-linecap="round" />
	<path d="M 75.439 41.307 c -0.553 0 -1 -0.448 -1 -1 v -5.007 c 0 -8.176 -3.272 -15.773 -9.216 -21.394 c -0.401 -0.379 -0.419 -1.012 -0.039 -1.414 s 1.013 -0.417 1.414 -0.04 c 6.346 6.002 9.841 14.116 9.841 22.847 v 5.007 C 76.439 40.859 75.992 41.307 75.439 41.307 z" style="stroke: none; stroke-width: 1; stroke-dasharray: none; stroke-linecap: butt; stroke-linejoin: miter; stroke-miterlimit: 10; fill: rgb(255,255,255); fill-rule: nonzero; opacity: 1;" transform=" matrix(1 0 0 1 0 0) " stroke-linecap="round" />
	<path d="M 14.561 72.165 c -3.07 0 -5.568 -2.497 -5.568 -5.567 V 45.06 c 0 -3.07 2.498 -5.568 5.568 -5.568 s 5.568 2.498 5.568 5.568 v 21.538 C 20.128 69.668 17.631 72.165 14.561 72.165 z M 14.561 41.492 c -1.967 0 -3.568 1.601 -3.568 3.568 v 21.538 c 0 1.967 1.601 3.567 3.568 3.567 s 3.568 -1.601 3.568 -3.567 V 45.06 C 18.128 43.092 16.528 41.492 14.561 41.492 z" style="stroke: none; stroke-width: 1; stroke-dasharray: none; stroke-linecap: butt; stroke-linejoin: miter; stroke-miterlimit: 10; fill: rgb(255,255,255); fill-rule: nonzero; opacity: 1;" transform=" matrix(1 0 0 1 0 0) " stroke-linecap="round" />
	<path d="M 75.439 72.165 c -3.07 0 -5.568 -2.497 -5.568 -5.567 V 45.06 c 0 -3.07 2.498 -5.568 5.568 -5.568 s 5.568 2.498 5.568 5.568 v 21.538 C 81.008 69.668 78.51 72.165 75.439 72.165 z M 75.439 41.492 c -1.968 0 -3.568 1.601 -3.568 3.568 v 21.538 c 0 1.967 1.601 3.567 3.568 3.567 s 3.568 -1.601 3.568 -3.567 V 45.06 C 79.008 43.092 77.407 41.492 75.439 41.492 z" style="stroke: none; stroke-width: 1; stroke-dasharray: none; stroke-linecap: butt; stroke-linejoin: miter; stroke-miterlimit: 10; fill: rgb(255,255,255); fill-rule: nonzero; opacity: 1;" transform=" matrix(1 0 0 1 0 0) " stroke-linecap="round" />
	<path d="M 62.804 16.18 c -0.778 0 -1.564 -0.245 -2.243 -0.741 c -4.542 -3.325 -9.923 -5.082 -15.561 -5.082 s -11.019 1.757 -15.561 5.082 c -1.507 1.104 -3.542 0.963 -4.84 -0.336 l -1.94 -1.94 c -0.744 -0.744 -1.135 -1.772 -1.073 -2.822 c 0.063 -1.065 0.583 -2.057 1.425 -2.721 C 29.336 2.635 36.94 0 45 0 c 8.061 0 15.664 2.635 21.988 7.62 c 0.843 0.665 1.363 1.657 1.426 2.722 c 0.062 1.049 -0.329 2.078 -1.073 2.821 l -1.939 1.94 C 64.688 15.816 63.752 16.18 62.804 16.18 z M 45 8.357 c 6.065 0 11.854 1.891 16.742 5.468 c 0.707 0.517 1.651 0.459 2.245 -0.136 l 1.939 -1.94 c 0.345 -0.345 0.52 -0.803 0.49 -1.29 c -0.029 -0.495 -0.272 -0.958 -0.667 -1.269 C 59.782 4.486 52.606 2 45 2 S 30.218 4.486 24.25 9.19 c -0.395 0.311 -0.638 0.773 -0.667 1.269 c -0.029 0.487 0.146 0.945 0.49 1.29 l 1.94 1.94 c 0.595 0.594 1.54 0.651 2.244 0.136 C 33.146 10.248 38.935 8.357 45 8.357 z" style="stroke: none; stroke-width: 1; stroke-dasharray: none; stroke-linecap: butt; stroke-linejoin: miter; stroke-miterlimit: 10; fill: rgb(255,255,255); fill-rule: nonzero; opacity: 1;" transform=" matrix(1 0 0 1 0 0) " stroke-linecap="round" />
	<path d="M 45 90 c -3.554 0 -6.445 -2.892 -6.445 -6.445 S 41.446 77.11 45 77.11 s 6.445 2.891 6.445 6.444 S 48.554 90 45 90 z M 45 79.11 c -2.451 0 -4.445 1.994 -4.445 4.444 C 40.555 86.006 42.549 88 45 88 c 2.451 0 4.445 -1.994 4.445 -4.445 C 49.445 81.104 47.451 79.11 45 79.11 z" style="stroke: none; stroke-width: 1; stroke-dasharray: none; stroke-linecap: butt; stroke-linejoin: miter; stroke-miterlimit: 10; fill: rgb(255,255,255); fill-rule: nonzero; opacity: 1;" transform=" matrix(1 0 0 1 0 0) " stroke-linecap="round" />
	<path d="M 64.301 84.555 H 50.445 c -0.553 0 -1 -0.447 -1 -1 s 0.447 -1 1 -1 h 13.855 c 5.591 0 10.139 -4.548 10.139 -10.139 v -1.251 c 0 -0.553 0.447 -1 1 -1 s 1 0.447 1 1 v 1.251 C 76.439 79.109 70.994 84.555 64.301 84.555 z" style="stroke: none; stroke-width: 1; stroke-dasharray: none; stroke-linecap: butt; stroke-linejoin: miter; stroke-miterlimit: 10; fill: rgb(255,255,255); fill-rule: nonzero; opacity: 1;" transform=" matrix(1 0 0 1 0 0) " stroke-linecap="round" />
	<path d="M 33.235 56.109 h -5.879 c -0.374 0 -0.717 -0.209 -0.889 -0.542 c -0.171 -0.332 -0.143 -0.732 0.074 -1.038 l 5.362 -7.538 c 0.39 -0.548 0.445 -1.239 0.147 -1.85 c -0.136 -0.279 -0.551 -0.932 -1.463 -0.973 l -0.099 -0.002 c -1.176 0 -2.133 0.957 -2.133 2.133 c 0 0.553 -0.448 1 -1 1 s -1 -0.447 -1 -1 c 0 -2.279 1.854 -4.133 4.133 -4.133 l 0.185 0.004 c 1.38 0.062 2.565 0.845 3.174 2.094 c 0.614 1.26 0.494 2.749 -0.315 3.885 l -4.239 5.959 h 3.94 c 0.552 0 1 0.447 1 1 S 33.788 56.109 33.235 56.109 z" style="stroke: none; stroke-width: 1; stroke-dasharray: none; stroke-linecap: butt; stroke-linejoin: miter; stroke-miterlimit: 10; fill: rgb(255,255,255); fill-rule: nonzero; opacity: 1;" transform=" matrix(1 0 0 1 0 0) " stroke-linecap="round" />
	<path d="M 42.734 56.109 c -0.552 0 -1 -0.447 -1 -1 v -1.22 h -5.976 c -0.375 0 -0.718 -0.21 -0.89 -0.543 c -0.171 -0.334 -0.142 -0.735 0.077 -1.04 l 6.976 -9.723 c 0.253 -0.353 0.705 -0.501 1.119 -0.369 c 0.414 0.133 0.694 0.518 0.694 0.952 v 8.723 h 1.233 c 0.552 0 1 0.447 1 1 s -0.448 1 -1 1 h -1.233 v 1.22 C 43.734 55.662 43.286 56.109 42.734 56.109 z M 37.707 51.89 h 4.027 v -5.614 L 37.707 51.89 z" style="stroke: none; stroke-width: 1; stroke-dasharray: none; stroke-linecap: butt; stroke-linejoin: miter; stroke-miterlimit: 10; fill: rgb(255,255,255); fill-rule: nonzero; opacity: 1;" transform=" matrix(1 0 0 1 0 0) " stroke-linecap="round" />
	<path d="M 55.637 68.604 c -0.172 0 -0.346 -0.044 -0.505 -0.138 c -0.477 -0.279 -0.636 -0.892 -0.356 -1.368 l 6.122 -10.437 h -5.26 c -0.553 0 -1 -0.447 -1 -1 s 0.447 -1 1 -1 h 7.006 c 0.358 0 0.689 0.192 0.868 0.503 c 0.178 0.312 0.176 0.693 -0.006 1.003 L 56.5 68.11 C 56.314 68.428 55.979 68.604 55.637 68.604 z" style="stroke: none; stroke-width: 1; stroke-dasharray: none; stroke-linecap: butt; stroke-linejoin: miter; stroke-miterlimit: 10; fill: rgb(255,255,255); fill-rule: nonzero; opacity: 1;" transform=" matrix(1 0 0 1 0 0) " stroke-linecap="round" />
	<path d="M 42.75 68.604 c -0.167 0 -0.335 -0.042 -0.491 -0.129 c -0.481 -0.272 -0.65 -0.882 -0.379 -1.363 l 13.805 -24.438 c 0.273 -0.482 0.88 -0.65 1.363 -0.379 c 0.48 0.271 0.65 0.882 0.379 1.362 L 43.622 68.097 C 43.438 68.422 43.1 68.604 42.75 68.604 z" style="stroke: none; stroke-width: 1; stroke-dasharray: none; stroke-linecap: butt; stroke-linejoin: miter; stroke-miterlimit: 10; fill: rgb(255,255,255); fill-rule: nonzero; opacity: 1;" transform=" matrix(1 0 0 1 0 0) " stroke-linecap="round" />
</g>
</svg>