<svg xmlns="http://www.w3.org/2000/svg" xmlns:xlink="http://www.w3.org/1999/xlink" version="1.1" width="256" height="256" viewBox="0 0 256 256" xml:space="preserve">

<defs>
</defs>
<g style="stroke: none; stroke-width: 0; stroke-dasharray: none; stroke-linecap: butt; stroke-linejoin: miter; stroke-miterlimit: 10; fill: none; fill-rule: nonzero; opacity: 1;" transform="translate(1.4065934065934016 1.4065934065934016) scale(2.81 2.81)" >
	<path d="M 65.752 63.703 H 39.139 c -0.552 0 -1 -0.447 -1 -1 s 0.448 -1 1 -1 h 25.613 v -37.29 c 0 -1.568 -1.275 -2.844 -2.843 -2.844 H 13.813 c -0.552 0 -1 -0.448 -1 -1 s 0.448 -1 1 -1 h 48.096 c 2.67 0 4.843 2.173 4.843 4.844 v 38.29 C 66.752 63.256 66.305 63.703 65.752 63.703 z" style="stroke: none; stroke-width: 1; stroke-dasharray: none; stroke-linecap: butt; stroke-linejoin: miter; stroke-miterlimit: 10; fill: rgb(255,255,255); fill-rule: nonzero; opacity: 1;" transform=" matrix(1 0 0 1 0 0) " stroke-linecap="round" />
	<path d="M 25.684 63.703 H 13.813 c -0.552 0 -1 -0.447 -1 -1 s 0.448 -1 1 -1 h 11.871 c 0.552 0 1 0.447 1 1 S 26.236 63.703 25.684 63.703 z" style="stroke: none; stroke-width: 1; stroke-dasharray: none; stroke-linecap: butt; stroke-linejoin: miter; stroke-miterlimit: 10; fill: rgb(255,255,255); fill-rule: nonzero; opacity: 1;" transform=" matrix(1 0 0 1 0 0) " stroke-linecap="round" />
	<path d="M 84.715 63.703 h -1.209 c -0.553 0 -1 -0.447 -1 -1 s 0.447 -1 1 -1 h 1.209 c 1.812 0 3.285 -1.474 3.285 -3.285 V 39.257 c 0 -2.585 -1.16 -4.99 -3.183 -6.599 l -5.485 -4.363 c -1.486 -1.182 -3.351 -1.833 -5.25 -1.833 h -7.33 v 35.241 h 3.3 c 0.553 0 1 0.447 1 1 s -0.447 1 -1 1 h -4.3 c -0.553 0 -1 -0.447 -1 -1 V 25.462 c 0 -0.552 0.447 -1 1 -1 h 8.33 c 2.35 0 4.656 0.805 6.494 2.268 l 5.485 4.363 C 88.564 33.083 90 36.059 90 39.257 v 19.161 C 90 61.332 87.629 63.703 84.715 63.703 z" style="stroke: none; stroke-width: 1; stroke-dasharray: none; stroke-linecap: butt; stroke-linejoin: miter; stroke-miterlimit: 10; fill: rgb(255,255,255); fill-rule: nonzero; opacity: 1;" transform=" matrix(1 0 0 1 0 0) " stroke-linecap="round" />
	<path d="M 89 45.313 H 75.779 c -1.919 0 -3.48 -1.562 -3.48 -3.481 V 25.462 c 0 -0.552 0.447 -1 1 -1 s 1 0.448 1 1 v 16.371 c 0 0.816 0.664 1.481 1.48 1.481 H 89 c 0.553 0 1 0.448 1 1 S 89.553 45.313 89 45.313 z" style="stroke: none; stroke-width: 1; stroke-dasharray: none; stroke-linecap: butt; stroke-linejoin: miter; stroke-miterlimit: 10; fill: rgb(255,255,255); fill-rule: nonzero; opacity: 1;" transform=" matrix(1 0 0 1 0 0) " stroke-linecap="round" />
	<path d="M 32.412 70.431 c -4.261 0 -7.728 -3.467 -7.728 -7.728 s 3.467 -7.727 7.728 -7.727 s 7.727 3.466 7.727 7.727 S 36.672 70.431 32.412 70.431 z M 32.412 56.977 c -3.158 0 -5.728 2.569 -5.728 5.727 c 0 3.158 2.569 5.728 5.728 5.728 c 3.158 0 5.727 -2.569 5.727 -5.728 C 38.139 59.546 35.569 56.977 32.412 56.977 z" style="stroke: none; stroke-width: 1; stroke-dasharray: none; stroke-linecap: butt; stroke-linejoin: miter; stroke-miterlimit: 10; fill: rgb(255,255,255); fill-rule: nonzero; opacity: 1;" transform=" matrix(1 0 0 1 0 0) " stroke-linecap="round" />
	<path d="M 76.778 70.431 c -4.261 0 -7.728 -3.467 -7.728 -7.728 s 3.467 -7.727 7.728 -7.727 s 7.728 3.466 7.728 7.727 S 81.039 70.431 76.778 70.431 z M 76.778 56.977 c -3.158 0 -5.728 2.569 -5.728 5.727 c 0 3.158 2.569 5.728 5.728 5.728 s 5.728 -2.569 5.728 -5.728 C 82.506 59.546 79.937 56.977 76.778 56.977 z" style="stroke: none; stroke-width: 1; stroke-dasharray: none; stroke-linecap: butt; stroke-linejoin: miter; stroke-miterlimit: 10; fill: rgb(255,255,255); fill-rule: nonzero; opacity: 1;" transform=" matrix(1 0 0 1 0 0) " stroke-linecap="round" />
	<path d="M 89 51.002 h -9.026 c -0.553 0 -1 -0.447 -1 -1 s 0.447 -1 1 -1 H 89 c 0.553 0 1 0.447 1 1 S 89.553 51.002 89 51.002 z" style="stroke: none; stroke-width: 1; stroke-dasharray: none; stroke-linecap: butt; stroke-linejoin: miter; stroke-miterlimit: 10; fill: rgb(255,255,255); fill-rule: nonzero; opacity: 1;" transform=" matrix(1 0 0 1 0 0) " stroke-linecap="round" />
	<circle cx="32.416000000000004" cy="62.706" r="1.706" style="stroke: none; stroke-width: 1; stroke-dasharray: none; stroke-linecap: butt; stroke-linejoin: miter; stroke-miterlimit: 10; fill: rgb(255,255,255); fill-rule: nonzero; opacity: 1;" transform="  matrix(1 0 0 1 0 0) "/>
	<circle cx="76.776" cy="62.706" r="1.706" style="stroke: none; stroke-width: 1; stroke-dasharray: none; stroke-linecap: butt; stroke-linejoin: miter; stroke-miterlimit: 10; fill: rgb(255,255,255); fill-rule: nonzero; opacity: 1;" transform="  matrix(1 0 0 1 0 0) "/>
	<path d="M 84.715 63.703 h -1.209 c -0.553 0 -1 -0.447 -1 -1 s 0.447 -1 1 -1 h 1.209 c 1.812 0 3.285 -1.474 3.285 -3.285 V 39.257 c 0 -2.585 -1.16 -4.99 -3.183 -6.599 l -5.485 -4.363 c -1.486 -1.182 -3.351 -1.833 -5.25 -1.833 h -7.33 v 35.241 h 3.3 c 0.553 0 1 0.447 1 1 s -0.447 1 -1 1 h -4.3 c -0.553 0 -1 -0.447 -1 -1 V 25.462 c 0 -0.552 0.447 -1 1 -1 h 8.33 c 2.35 0 4.656 0.805 6.494 2.268 l 5.485 4.363 C 88.564 33.083 90 36.059 90 39.257 v 19.161 C 90 61.332 87.629 63.703 84.715 63.703 z" style="stroke: none; stroke-width: 1; stroke-dasharray: none; stroke-linecap: butt; stroke-linejoin: miter; stroke-miterlimit: 10; fill: rgb(255,255,255); fill-rule: nonzero; opacity: 1;" transform=" matrix(1 0 0 1 0 0) " stroke-linecap="round" />
	<path d="M 30.705 51.453 H 7.048 c -0.552 0 -1 -0.447 -1 -1 s 0.448 -1 1 -1 h 23.657 c 0.552 0 1 0.447 1 1 S 31.257 51.453 30.705 51.453 z" style="stroke: none; stroke-width: 1; stroke-dasharray: none; stroke-linecap: butt; stroke-linejoin: miter; stroke-miterlimit: 10; fill: rgb(255,255,255); fill-rule: nonzero; opacity: 1;" transform=" matrix(1 0 0 1 0 0) " stroke-linecap="round" />
	<path d="M 26.249 33.82 H 9.372 c -0.552 0 -1 -0.448 -1 -1 s 0.448 -1 1 -1 h 16.877 c 0.552 0 1 0.448 1 1 S 26.801 33.82 26.249 33.82 z" style="stroke: none; stroke-width: 1; stroke-dasharray: none; stroke-linecap: butt; stroke-linejoin: miter; stroke-miterlimit: 10; fill: rgb(255,255,255); fill-rule: nonzero; opacity: 1;" transform=" matrix(1 0 0 1 0 0) " stroke-linecap="round" />
	<path d="M 45.283 53.494 c -0.153 0 -0.307 -0.035 -0.447 -0.105 c -9.59 -4.795 -13.173 -11.745 -13.329 -16.651 c -0.105 -3.329 1.279 -6.158 3.703 -7.569 c 2.719 -1.582 6.277 -1.256 10.073 0.907 c 3.795 -2.164 7.357 -2.488 10.074 -0.907 c 2.424 1.411 3.809 4.241 3.703 7.569 c -0.156 4.906 -3.739 11.856 -13.33 16.651 C 45.589 53.459 45.436 53.494 45.283 53.494 z M 39.022 30.181 c -1.038 0 -1.983 0.237 -2.806 0.716 c -1.806 1.051 -2.793 3.157 -2.71 5.777 c 0.135 4.255 3.309 10.312 11.777 14.698 c 8.468 -4.386 11.643 -10.442 11.778 -14.698 c 0.083 -2.621 -0.904 -4.727 -2.71 -5.777 c -2.177 -1.267 -5.212 -0.844 -8.546 1.193 c -0.32 0.195 -0.723 0.195 -1.043 0 C 42.688 30.823 40.729 30.181 39.022 30.181 z" style="stroke: none; stroke-width: 1; stroke-dasharray: none; stroke-linecap: butt; stroke-linejoin: miter; stroke-miterlimit: 10; fill: rgb(255,255,255); fill-rule: nonzero; opacity: 1;" transform=" matrix(1 0 0 1 0 0) " stroke-linecap="round" />
	<path d="M 24.657 42.636 H 1 c -0.552 0 -1 -0.448 -1 -1 s 0.448 -1 1 -1 h 23.657 c 0.552 0 1 0.448 1 1 S 25.209 42.636 24.657 42.636 z" style="stroke: none; stroke-width: 1; stroke-dasharray: none; stroke-linecap: butt; stroke-linejoin: miter; stroke-miterlimit: 10; fill: rgb(255,255,255); fill-rule: nonzero; opacity: 1;" transform=" matrix(1 0 0 1 0 0) " stroke-linecap="round" />
</g>
</svg>