<svg xmlns="http://www.w3.org/2000/svg" xmlns:xlink="http://www.w3.org/1999/xlink" version="1.1" width="256" height="256" viewBox="0 0 256 256" xml:space="preserve">

<defs>
</defs>
<g style="stroke: none; stroke-width: 0; stroke-dasharray: none; stroke-linecap: butt; stroke-linejoin: miter; stroke-miterlimit: 10; fill: none; fill-rule: nonzero; opacity: 1;" transform="translate(1.4065934065934016 1.4065934065934016) scale(2.81 2.81)" >
	<path d="M 10.124 46.033 c -0.552 0 -1 -0.448 -1 -1 V 30.508 c 0 -0.552 0.448 -1 1 -1 h 6.353 c 0.552 0 1 0.448 1 1 s -0.448 1 -1 1 h -5.353 v 13.525 C 11.124 45.585 10.676 46.033 10.124 46.033 z" style="stroke: none; stroke-width: 1; stroke-dasharray: none; stroke-linecap: butt; stroke-linejoin: miter; stroke-miterlimit: 10; fill: rgb(255,255,255); fill-rule: nonzero; opacity: 1;" transform=" matrix(1 0 0 1 0 0) " stroke-linecap="round" />
	<path d="M 13.3 38.771 h -2.751 c -0.552 0 -1 -0.448 -1 -1 s 0.448 -1 1 -1 H 13.3 c 0.552 0 1 0.448 1 1 S 13.852 38.771 13.3 38.771 z" style="stroke: none; stroke-width: 1; stroke-dasharray: none; stroke-linecap: butt; stroke-linejoin: miter; stroke-miterlimit: 10; fill: rgb(255,255,255); fill-rule: nonzero; opacity: 1;" transform=" matrix(1 0 0 1 0 0) " stroke-linecap="round" />
	<path d="M 22.15 46.033 c -0.552 0 -1 -0.448 -1 -1 V 30.508 c 0 -0.552 0.448 -1 1 -1 h 4.915 c 1.344 0 2.438 1.199 2.438 2.673 v 3.916 c 0 1.474 -1.094 2.673 -2.438 2.673 H 23.15 v 6.263 C 23.15 45.585 22.702 46.033 22.15 46.033 z M 23.15 36.771 h 3.915 c 0.207 0 0.438 -0.288 0.438 -0.673 v -3.916 c 0 -0.385 -0.231 -0.673 -0.438 -0.673 H 23.15 V 36.771 z" style="stroke: none; stroke-width: 1; stroke-dasharray: none; stroke-linecap: butt; stroke-linejoin: miter; stroke-miterlimit: 10; fill: rgb(255,255,255); fill-rule: nonzero; opacity: 1;" transform=" matrix(1 0 0 1 0 0) " stroke-linecap="round" />
	<path d="M 28.503 46.033 c -0.385 0 -0.752 -0.224 -0.917 -0.599 l -3.176 -7.263 c -0.222 -0.506 0.009 -1.096 0.515 -1.317 c 0.506 -0.222 1.096 0.009 1.317 0.515 l 3.176 7.263 c 0.222 0.506 -0.009 1.096 -0.515 1.317 C 28.773 46.007 28.637 46.033 28.503 46.033 z" style="stroke: none; stroke-width: 1; stroke-dasharray: none; stroke-linecap: butt; stroke-linejoin: miter; stroke-miterlimit: 10; fill: rgb(255,255,255); fill-rule: nonzero; opacity: 1;" transform=" matrix(1 0 0 1 0 0) " stroke-linecap="round" />
	<path d="M 41.08 46.033 h -6.353 c -0.552 0 -1 -0.448 -1 -1 V 30.508 c 0 -0.552 0.448 -1 1 -1 h 6.353 c 0.552 0 1 0.448 1 1 s -0.448 1 -1 1 h -5.353 v 12.525 h 5.353 c 0.552 0 1 0.448 1 1 S 41.632 46.033 41.08 46.033 z" style="stroke: none; stroke-width: 1; stroke-dasharray: none; stroke-linecap: butt; stroke-linejoin: miter; stroke-miterlimit: 10; fill: rgb(255,255,255); fill-rule: nonzero; opacity: 1;" transform=" matrix(1 0 0 1 0 0) " stroke-linecap="round" />
	<path d="M 37.903 38.771 h -2.75 c -0.552 0 -1 -0.448 -1 -1 s 0.448 -1 1 -1 h 2.75 c 0.552 0 1 0.448 1 1 S 38.455 38.771 37.903 38.771 z" style="stroke: none; stroke-width: 1; stroke-dasharray: none; stroke-linecap: butt; stroke-linejoin: miter; stroke-miterlimit: 10; fill: rgb(255,255,255); fill-rule: nonzero; opacity: 1;" transform=" matrix(1 0 0 1 0 0) " stroke-linecap="round" />
	<path d="M 53.656 46.033 h -6.353 c -0.553 0 -1 -0.448 -1 -1 V 30.508 c 0 -0.552 0.447 -1 1 -1 h 6.353 c 0.553 0 1 0.448 1 1 s -0.447 1 -1 1 h -5.353 v 12.525 h 5.353 c 0.553 0 1 0.448 1 1 S 54.209 46.033 53.656 46.033 z" style="stroke: none; stroke-width: 1; stroke-dasharray: none; stroke-linecap: butt; stroke-linejoin: miter; stroke-miterlimit: 10; fill: rgb(255,255,255); fill-rule: nonzero; opacity: 1;" transform=" matrix(1 0 0 1 0 0) " stroke-linecap="round" />
	<path d="M 50.479 38.771 h -2.751 c -0.553 0 -1 -0.448 -1 -1 s 0.447 -1 1 -1 h 2.751 c 0.553 0 1 0.448 1 1 S 51.032 38.771 50.479 38.771 z" style="stroke: none; stroke-width: 1; stroke-dasharray: none; stroke-linecap: butt; stroke-linejoin: miter; stroke-miterlimit: 10; fill: rgb(255,255,255); fill-rule: nonzero; opacity: 1;" transform=" matrix(1 0 0 1 0 0) " stroke-linecap="round" />
	<path d="M 87.126 64.667 h -2.232 v -2 h 2.232 c 0.482 0 0.874 -0.392 0.874 -0.874 V 50.089 c 0 -0.214 -0.079 -0.421 -0.222 -0.583 L 76.106 36.378 c -0.166 -0.187 -0.404 -0.294 -0.653 -0.294 H 64.589 v 26.583 h 9.771 v 2 H 62.589 V 34.084 h 12.864 c 0.82 0 1.604 0.352 2.148 0.965 l 11.672 13.129 C 89.742 48.707 90 49.385 90 50.089 v 11.704 C 90 63.378 88.711 64.667 87.126 64.667 z" style="stroke: none; stroke-width: 1; stroke-dasharray: none; stroke-linecap: butt; stroke-linejoin: miter; stroke-miterlimit: 10; fill: rgb(255,255,255); fill-rule: nonzero; opacity: 1;" transform=" matrix(1 0 0 1 0 0) " stroke-linecap="round" />
	<path d="M 64.589 64.667 H 22.888 v -2 h 39.701 V 26.53 c 0 -2.315 -1.443 -4.198 -3.217 -4.198 H 5.217 C 3.443 22.332 2 24.215 2 26.53 v 34.631 c 0 0.816 0.473 1.506 1.033 1.506 h 9.328 v 2 H 3.033 C 1.361 64.667 0 63.095 0 61.161 V 26.53 c 0 -3.417 2.34 -6.198 5.217 -6.198 h 54.155 c 2.877 0 5.217 2.781 5.217 6.198 V 64.667 z" style="stroke: none; stroke-width: 1; stroke-dasharray: none; stroke-linecap: butt; stroke-linejoin: miter; stroke-miterlimit: 10; fill: rgb(255,255,255); fill-rule: nonzero; opacity: 1;" transform=" matrix(1 0 0 1 0 0) " stroke-linecap="round" />
	<path d="M 79.627 69.668 c -3.456 0 -6.268 -2.812 -6.268 -6.268 s 2.812 -6.268 6.268 -6.268 c 3.455 0 6.267 2.812 6.267 6.268 S 83.082 69.668 79.627 69.668 z M 79.627 59.133 c -2.354 0 -4.268 1.914 -4.268 4.268 s 1.914 4.268 4.268 4.268 c 2.353 0 4.267 -1.914 4.267 -4.268 S 81.979 59.133 79.627 59.133 z" style="stroke: none; stroke-width: 1; stroke-dasharray: none; stroke-linecap: butt; stroke-linejoin: miter; stroke-miterlimit: 10; fill: rgb(255,255,255); fill-rule: nonzero; opacity: 1;" transform=" matrix(1 0 0 1 0 0) " stroke-linecap="round" />
	<path d="M 17.621 69.668 c -3.456 0 -6.268 -2.812 -6.268 -6.268 s 2.812 -6.268 6.268 -6.268 s 6.268 2.812 6.268 6.268 S 21.077 69.668 17.621 69.668 z M 17.621 59.133 c -2.353 0 -4.268 1.914 -4.268 4.268 s 1.915 4.268 4.268 4.268 s 4.268 -1.914 4.268 -4.268 S 19.974 59.133 17.621 59.133 z" style="stroke: none; stroke-width: 1; stroke-dasharray: none; stroke-linecap: butt; stroke-linejoin: miter; stroke-miterlimit: 10; fill: rgb(255,255,255); fill-rule: nonzero; opacity: 1;" transform=" matrix(1 0 0 1 0 0) " stroke-linecap="round" />
	<path d="M 89 50.376 H 72.525 c -1.476 0 -2.676 -1.2 -2.676 -2.676 v -6.232 c 0 -1.476 1.2 -2.676 2.676 -2.676 h 7.955 v 2 h -7.955 c -0.373 0 -0.676 0.303 -0.676 0.676 V 47.7 c 0 0.373 0.303 0.676 0.676 0.676 H 89 V 50.376 z" style="stroke: none; stroke-width: 1; stroke-dasharray: none; stroke-linecap: butt; stroke-linejoin: miter; stroke-miterlimit: 10; fill: rgb(255,255,255); fill-rule: nonzero; opacity: 1;" transform=" matrix(1 0 0 1 0 0) " stroke-linecap="round" />
	<path d="M 63.589 53.953 H 12.353 c -0.552 0 -1 -0.447 -1 -1 s 0.448 -1 1 -1 h 51.236 c 0.553 0 1 0.447 1 1 S 64.142 53.953 63.589 53.953 z" style="stroke: none; stroke-width: 1; stroke-dasharray: none; stroke-linecap: butt; stroke-linejoin: miter; stroke-miterlimit: 10; fill: rgb(255,255,255); fill-rule: nonzero; opacity: 1;" transform=" matrix(1 0 0 1 0 0) " stroke-linecap="round" />
</g>
</svg>